<svg width="204" height="28" viewBox="0 0 204 28" fill="none" xmlns="http://www.w3.org/2000/svg">
<path d="M23.775 9C23.775 9 23.55 7.28125 22.8 6.5C21.9 5.48438 20.85 5.48438 20.4 5.40625C17.025 5.17188 12 5.17188 12 5.17188C12 5.17188 6.975 5.17188 3.6 5.40625C3.15 5.48438 2.1 5.48438 1.2 6.5C0.45 7.28125 0.225 9 0.225 9C0.225 9 0 11.0313 0 13.0625V14.9375C0 16.9688 0.225 19 0.225 19C0.225 19 0.45 20.7188 1.2 21.5C2.1 22.5156 3.3 22.4375 3.825 22.5938C5.775 22.75 12 22.8281 12 22.8281C12 22.8281 17.025 22.8281 20.4 22.5938C20.85 22.5156 21.9 22.5156 22.8 21.5C23.55 20.7188 23.775 19 23.775 19C23.775 19 24 16.9688 24 14.9375V13.0625C24 11.0313 23.775 9 23.775 9ZM9.525 17.2813V10.25L15.975 13.7656L9.525 17.2813Z" fill="white"/>
<path d="M55.625 2.625H36.375C35.9109 2.625 35.4658 2.80937 35.1376 3.13756C34.8094 3.46575 34.625 3.91087 34.625 4.375V23.625C34.625 24.0891 34.8094 24.5342 35.1376 24.8624C35.4658 25.1906 35.9109 25.375 36.375 25.375H55.625C56.0891 25.375 56.5342 25.1906 56.8624 24.8624C57.1906 24.5342 57.375 24.0891 57.375 23.625V4.375C57.375 3.91087 57.1906 3.46575 56.8624 3.13756C56.5342 2.80937 56.0891 2.625 55.625 2.625ZM42.5 19.25C42.5 19.4821 42.4078 19.7046 42.2437 19.8687C42.0796 20.0328 41.8571 20.125 41.625 20.125C41.3929 20.125 41.1704 20.0328 41.0063 19.8687C40.8422 19.7046 40.75 19.4821 40.75 19.25V12.25C40.75 12.0179 40.8422 11.7954 41.0063 11.6313C41.1704 11.4672 41.3929 11.375 41.625 11.375C41.8571 11.375 42.0796 11.4672 42.2437 11.6313C42.4078 11.7954 42.5 12.0179 42.5 12.25V19.25ZM41.625 10.5C41.3654 10.5 41.1117 10.423 40.8958 10.2788C40.68 10.1346 40.5117 9.9296 40.4124 9.68977C40.3131 9.44994 40.2871 9.18604 40.3377 8.93144C40.3884 8.67684 40.5134 8.44298 40.6969 8.25942C40.8805 8.07587 41.1143 7.95086 41.3689 7.90022C41.6235 7.84958 41.8874 7.87557 42.1273 7.97491C42.3671 8.07425 42.5721 8.24248 42.7163 8.45831C42.8605 8.67415 42.9375 8.92791 42.9375 9.1875C42.9375 9.5356 42.7992 9.86944 42.5531 10.1156C42.3069 10.3617 41.9731 10.5 41.625 10.5ZM52.125 19.25C52.125 19.4821 52.0328 19.7046 51.8687 19.8687C51.7046 20.0328 51.4821 20.125 51.25 20.125C51.0179 20.125 50.7954 20.0328 50.6313 19.8687C50.4672 19.7046 50.375 19.4821 50.375 19.25V15.3125C50.375 14.7323 50.1445 14.1759 49.7343 13.7657C49.3241 13.3555 48.7677 13.125 48.1875 13.125C47.6073 13.125 47.0509 13.3555 46.6407 13.7657C46.2305 14.1759 46 14.7323 46 15.3125V19.25C46 19.4821 45.9078 19.7046 45.7437 19.8687C45.5796 20.0328 45.3571 20.125 45.125 20.125C44.8929 20.125 44.6704 20.0328 44.5063 19.8687C44.3422 19.7046 44.25 19.4821 44.25 19.25V12.25C44.2511 12.0357 44.3308 11.8292 44.474 11.6697C44.6172 11.5103 44.814 11.4089 45.027 11.3849C45.24 11.3609 45.4543 11.4159 45.6295 11.5395C45.8046 11.6631 45.9283 11.8466 45.977 12.0553C46.569 11.6538 47.2591 11.421 47.9733 11.3821C48.6875 11.3432 49.3988 11.4996 50.0309 11.8344C50.6629 12.1693 51.1918 12.67 51.5607 13.2828C51.9297 13.8955 52.1248 14.5972 52.125 15.3125V19.25Z" fill="white"/>
<path d="M87.25 2.625H76.75C75.1261 2.62674 73.5692 3.27261 72.4209 4.42089C71.2726 5.56917 70.6267 7.12608 70.625 8.75V19.25C70.6267 20.8739 71.2726 22.4308 72.4209 23.5791C73.5692 24.7274 75.1261 25.3733 76.75 25.375H87.25C88.8739 25.3733 90.4308 24.7274 91.5791 23.5791C92.7274 22.4308 93.3733 20.8739 93.375 19.25V8.75C93.3733 7.12608 92.7274 5.56917 91.5791 4.42089C90.4308 3.27261 88.8739 2.62674 87.25 2.625ZM82 19.25C80.9616 19.25 79.9466 18.9421 79.0833 18.3652C78.2199 17.7883 77.547 16.9684 77.1496 16.0091C76.7523 15.0498 76.6483 13.9942 76.8509 12.9758C77.0535 11.9574 77.5535 11.0219 78.2877 10.2877C79.0219 9.55346 79.9574 9.05345 80.9758 8.85088C81.9942 8.64831 83.0498 8.75227 84.0091 9.14963C84.9684 9.54699 85.7883 10.2199 86.3652 11.0833C86.9421 11.9466 87.25 12.9616 87.25 14C87.2486 15.3919 86.695 16.7265 85.7107 17.7107C84.7265 18.695 83.3919 19.2486 82 19.25ZM88.5625 8.75C88.3029 8.75 88.0492 8.67302 87.8333 8.5288C87.6175 8.38458 87.4492 8.1796 87.3499 7.93977C87.2506 7.69994 87.2246 7.43604 87.2752 7.18144C87.3259 6.92684 87.4509 6.69298 87.6344 6.50942C87.818 6.32587 88.0518 6.20086 88.3064 6.15022C88.561 6.09958 88.8249 6.12557 89.0648 6.22491C89.3046 6.32425 89.5096 6.49247 89.6538 6.70831C89.798 6.92415 89.875 7.17791 89.875 7.4375C89.875 7.7856 89.7367 8.11944 89.4906 8.36558C89.2444 8.61172 88.9106 8.75 88.5625 8.75ZM85.5 14C85.5 14.6922 85.2947 15.3689 84.9101 15.9445C84.5256 16.5201 83.9789 16.9687 83.3394 17.2336C82.6999 17.4985 81.9961 17.5678 81.3172 17.4327C80.6383 17.2977 80.0146 16.9644 79.5251 16.4749C79.0356 15.9854 78.7023 15.3617 78.5673 14.6828C78.4322 14.0039 78.5015 13.3001 78.7664 12.6606C79.0313 12.0211 79.4799 11.4744 80.0555 11.0899C80.6311 10.7053 81.3078 10.5 82 10.5C82.9283 10.5 83.8185 10.8687 84.4749 11.5251C85.1313 12.1815 85.5 13.0717 85.5 14Z" fill="white"/>
<path d="M129.375 13.9997C129.371 16.7798 128.351 19.4626 126.507 21.5429C124.663 23.6231 122.121 24.9572 119.362 25.2937C119.3 25.3007 119.238 25.2945 119.179 25.2757C119.12 25.2568 119.066 25.2257 119.02 25.1844C118.974 25.143 118.937 25.0924 118.912 25.0359C118.887 24.9793 118.875 24.9181 118.875 24.8562V16.6247H121.5C121.62 16.6249 121.739 16.6005 121.849 16.553C121.959 16.5054 122.058 16.4357 122.14 16.3482C122.222 16.2607 122.285 16.1573 122.326 16.0444C122.366 15.9314 122.383 15.8114 122.375 15.6917C122.356 15.4667 122.252 15.2574 122.084 15.1058C121.917 14.9542 121.698 14.8716 121.473 14.8747H118.875V12.2497C118.875 11.7855 119.059 11.3404 119.388 11.0122C119.716 10.684 120.161 10.4997 120.625 10.4997H122.375C122.495 10.4999 122.614 10.4755 122.724 10.428C122.834 10.3804 122.933 10.3107 123.015 10.2232C123.097 10.1357 123.16 10.0323 123.201 9.91937C123.241 9.80643 123.258 9.68639 123.25 9.5667C123.231 9.34131 123.127 9.13165 122.959 8.98002C122.791 8.82839 122.572 8.74607 122.345 8.74967H120.625C119.697 8.74967 118.807 9.11842 118.15 9.77479C117.494 10.4312 117.125 11.3214 117.125 12.2497V14.8747H114.5C114.38 14.8744 114.261 14.8988 114.151 14.9464C114.041 14.9939 113.942 15.0636 113.86 15.1511C113.778 15.2386 113.715 15.342 113.674 15.455C113.634 15.5679 113.617 15.6879 113.625 15.8076C113.644 16.033 113.748 16.2427 113.916 16.3943C114.084 16.5459 114.303 16.6283 114.53 16.6247H117.125V24.8584C117.125 24.9202 117.113 24.9813 117.088 25.0378C117.063 25.0942 117.026 25.1448 116.98 25.1861C116.934 25.2274 116.88 25.2586 116.822 25.2775C116.763 25.2964 116.701 25.3027 116.639 25.2959C113.806 24.9508 111.205 23.5546 109.352 21.3834C107.499 19.2123 106.528 16.4246 106.633 13.572C106.851 7.66576 111.635 2.8642 117.546 2.63451C119.076 2.57524 120.603 2.82521 122.034 3.36947C123.466 3.91374 124.773 4.74111 125.877 5.80212C126.981 6.86312 127.86 8.13595 128.461 9.54447C129.062 10.953 129.373 12.4683 129.375 13.9997Z" fill="white"/>
<path d="M163.516 24.0461C163.44 24.1833 163.33 24.2978 163.195 24.3777C163.06 24.4575 162.907 24.4998 162.75 24.5H157.5C157.353 24.5 157.208 24.4627 157.079 24.3918C156.95 24.3209 156.841 24.2185 156.762 24.0942L152.333 17.1347L145.897 24.2134C145.741 24.382 145.524 24.4819 145.294 24.4915C145.064 24.5011 144.839 24.4196 144.669 24.2648C144.498 24.1099 144.396 23.8942 144.383 23.6642C144.371 23.4343 144.45 23.2088 144.602 23.0366L151.359 15.5991L144.512 4.84531C144.427 4.71302 144.38 4.56048 144.375 4.40368C144.37 4.24688 144.407 4.09158 144.482 3.95404C144.558 3.8165 144.669 3.70179 144.804 3.62191C144.939 3.54203 145.093 3.49992 145.25 3.5H150.5C150.647 3.50005 150.792 3.53726 150.921 3.60819C151.05 3.67912 151.159 3.78148 151.238 3.90578L155.667 10.8653L162.102 3.78656C162.259 3.61804 162.476 3.51814 162.706 3.50853C162.936 3.49892 163.161 3.58037 163.331 3.73522C163.502 3.89007 163.604 4.10584 163.617 4.33576C163.629 4.56567 163.55 4.7912 163.397 4.96344L156.641 12.3955L163.488 23.1558C163.572 23.2881 163.619 23.4406 163.624 23.5972C163.629 23.7538 163.591 23.9088 163.516 24.0461Z" fill="white"/>
<path d="M201.375 8.75V13.125C201.375 13.3571 201.283 13.5796 201.119 13.7437C200.955 13.9078 200.732 14 200.5 14C198.672 14.0042 196.871 13.5647 195.25 12.7192V17.0625C195.25 19.2671 194.374 21.3814 192.815 22.9403C191.256 24.4992 189.142 25.375 186.938 25.375C184.733 25.375 182.619 24.4992 181.06 22.9403C179.501 21.3814 178.625 19.2671 178.625 17.0625C178.625 13.0266 181.568 9.45875 185.472 8.76313C185.598 8.74074 185.727 8.74624 185.851 8.77923C185.974 8.81222 186.089 8.8719 186.187 8.95407C186.285 9.03624 186.364 9.1389 186.418 9.25482C186.472 9.37074 186.5 9.4971 186.5 9.625V14.2942C186.5 14.4598 186.453 14.622 186.365 14.762C186.276 14.902 186.15 15.014 186 15.085C185.646 15.2527 185.344 15.5123 185.125 15.8366C184.906 16.1609 184.778 16.5381 184.754 16.9288C184.73 17.3195 184.812 17.7095 184.99 18.0579C185.168 18.4064 185.437 18.7006 185.768 18.91C186.099 19.1193 186.479 19.236 186.871 19.248C187.262 19.2599 187.649 19.1667 187.992 18.978C188.335 18.7893 188.621 18.512 188.82 18.1751C189.02 17.8382 189.125 17.4539 189.125 17.0625V2.625C189.125 2.39294 189.217 2.17038 189.381 2.00628C189.545 1.84219 189.768 1.75 190 1.75H194.375C194.607 1.75 194.83 1.84219 194.994 2.00628C195.158 2.17038 195.25 2.39294 195.25 2.625C195.251 4.01694 195.805 5.35146 196.789 6.33571C197.774 7.31996 199.108 7.87355 200.5 7.875C200.732 7.875 200.955 7.96719 201.119 8.13128C201.283 8.29538 201.375 8.51794 201.375 8.75Z" fill="white"/>
</svg>
