<svg width="39" height="60" viewBox="0 0 39 60" fill="none" xmlns="http://www.w3.org/2000/svg">
<g clip-path="url(#clip0_441_120)">
<path d="M7.04143 12.2296C6.96172 12.4359 6.89795 12.6529 6.80761 12.8275C6.36123 13.6425 5.64383 14.2564 4.95299 14.8702C2.10465 16.95 0.983381 17.6009 0.627338 21.3211C-0.276055 26.3061 -0.0422353 31.3546 0.319122 36.3767C0.414775 40.3509 0.202212 44.3622 0.239411 48.3364C0.441345 51.7709 0.00559068 55.9939 4.40033 56.6924C4.96894 56.8671 5.33561 56.0362 4.82014 55.7399C4.07617 55.1631 3.01867 54.8614 2.60949 53.9512C1.98774 51.9826 2.14716 49.8447 1.97711 47.802C2.009 43.9918 1.87615 40.2715 1.81238 36.3925C1.56262 31.9897 1.19063 27.555 1.59981 23.1468C1.8602 21.554 1.77518 19.5483 2.83268 18.1724C3.66167 17.3627 4.83077 17.0717 5.79793 16.479C7.11582 15.5952 8.49748 14.2299 8.5772 12.5735C8.81101 12.6053 9.03952 12.637 9.26803 12.6582C11.4149 12.8434 13.5671 12.9916 15.714 13.1292C19.402 13.4149 23.0952 13.0181 26.7726 12.7587C27.4103 12.727 28.0586 12.6317 28.691 12.4783C28.7335 14.1823 30.1523 15.3941 31.6987 16.008C33.6065 16.9976 35.1582 18.4635 35.9766 20.4903C36.694 22.4906 36.6302 24.6762 36.7737 26.7718C36.9118 29.3331 36.9118 32.1114 36.9916 34.7415C37.151 38.2288 37.3582 41.7744 37.1404 45.2777C37.1404 47.8708 37.5283 50.5485 36.7365 53.0727C36.2901 54.1788 35.8703 55.4382 34.749 56.0415C32.8731 57.0576 30.9229 57.772 28.7813 58.026C21.5435 59.0897 14.0294 58.3858 6.82886 57.2269C6.18586 57.0787 5.54817 56.9306 4.90517 56.7877C4.63415 56.7295 4.3525 56.8618 4.27279 57.1422C4.14526 59.1003 16.8884 59.8358 18.9237 59.984C23.9933 60.0158 29.3499 59.9628 34.0529 57.8884C36.2688 57.1158 37.8152 55.2583 38.4689 53.041C39.1225 50.7813 39.0056 48.437 38.9046 46.1085C39.0481 42.9228 39.0694 39.7318 38.8302 36.546C38.5061 33.0957 38.5752 29.6242 38.3413 26.1685C38.166 22.914 37.8843 19.3419 35.4717 16.8812C34.6852 16.0927 33.8137 15.3783 32.8413 14.8226C31.7359 14.267 30.3171 13.743 30.2002 12.3195C30.2002 12.1978 30.1736 12.0867 30.1364 11.9861C31.7466 11.2611 32.9794 9.97519 33.0751 7.93779C33.1601 6.4243 33.006 4.86318 32.2408 3.52432C32.5649 1.31228 29.0151 1.00006 27.4422 0.693128C24.3015 0.259189 21.1397 0.0580953 17.9831 0.0104678C14.8106 -0.0530355 11.6222 0.222145 8.65159 1.39696C7.31776 1.86794 5.88296 2.25954 4.81483 3.23326C2.54041 5.17011 3.15152 8.7845 4.83077 10.9119C5.43658 11.5628 6.20712 11.9703 7.04143 12.2348V12.2296ZM10.2936 2.33363C14.0719 0.989476 18.201 1.20115 22.1493 1.32816C24.1049 1.48692 26.0605 1.64568 27.9948 1.98436C28.9514 2.22779 30.0301 2.39713 30.7741 3.10625C29.334 5.02723 23.4619 6.08561 20.959 6.30788C17.9193 6.54072 14.9063 6.03269 11.8932 5.73635C10.825 5.6358 9.77818 5.42412 8.72068 5.23361C8.00327 5.08544 7.17428 5.01664 6.60036 4.50862C6.43562 4.28635 6.18055 4.10643 5.90421 4.1911C7.16896 3.21209 8.81633 2.89457 10.2883 2.33363H10.2936ZM5.42063 4.70442C5.37812 6.58835 10.6763 7.06462 12.1801 7.37685C16.7024 8.11243 21.3788 8.56224 25.8586 7.30805C27.761 6.77886 29.8973 6.37138 31.3693 4.9796C32.4693 9.08085 30.8591 11.0759 26.6504 11.2188C23.9083 11.3723 21.1769 11.6104 18.4295 11.6792C16.644 11.7797 14.8744 11.4305 13.0888 11.4411C11.1067 11.2082 9.02889 11.2135 7.14771 10.4938C5.26121 9.73176 4.21434 6.36609 5.42063 4.70971V4.70442Z" fill="#7688AD"/>
<path d="M33.3509 23.3743C32.3625 22.1095 30.5504 22.1254 29.0837 21.9137C24.6039 21.4322 20.0657 21.0935 15.57 21.5486C13.6091 21.7762 7.43948 22.1783 5.72304 24.0305C5.56361 24.1417 5.42013 24.3004 5.33511 24.4592C4.31481 25.6922 4.33075 27.3592 4.17664 28.8726C3.81528 34.1275 3.4805 39.4036 4.02253 44.6638C4.21384 46.9499 4.15007 49.4424 5.39888 51.4586C7.33852 54.3798 10.5163 54.7926 13.7632 54.7926C15.2671 54.8455 16.7604 54.5968 18.2643 54.565C19.8 54.5121 21.4421 54.4962 22.9778 54.2634C23.5996 54.1999 23.5624 53.2632 22.9513 53.2526C20.8628 53.332 18.7691 53.3796 16.686 53.5225C14.9855 53.7342 13.285 53.6178 11.5845 53.4378C10.2187 53.3055 8.74675 52.824 7.73176 51.8344C6.63706 50.8554 6.27039 49.416 6.10034 48.0083C5.86652 46.1561 5.76024 44.2881 5.59019 42.4253C5.50516 40.9965 5.43608 39.5624 5.37762 38.123C6.33416 38.5834 8.47573 37.2233 8.90617 36.5142C9.69265 35.6728 10.9361 30.4444 9.00182 30.5872C8.5395 30.6454 8.32162 31.1746 8.47573 31.5768C8.5395 32.5241 8.34819 33.466 8.11968 34.3763C7.81678 36.202 6.07908 36.3184 5.3298 36.8688C5.22883 33.6619 5.22883 30.4496 5.38825 27.2533C5.44139 26.8353 5.51579 26.4013 5.6699 26.0044C6.64769 27.1951 9.23033 27.502 10.5004 27.8513C13.5719 28.4281 16.8348 28.7245 19.9116 28.2112C20.9797 28.444 22.0851 28.4387 23.1745 28.4652C24.4817 28.4969 25.7571 28.1847 27.0431 27.9942C28.6161 27.7455 30.29 27.5867 31.6876 26.7665C31.9746 26.5918 32.2775 26.3854 32.5644 26.1526C32.591 26.613 32.6229 27.0734 32.676 27.5338C32.9152 29.4971 32.8355 31.3387 32.9098 33.3338C32.9577 38.1441 33.7388 42.9439 33.0055 47.7543C32.3891 50.5008 30.2847 52.5911 27.5692 53.3584C26.8199 53.5701 26.0387 53.6336 25.2682 53.7024C25.0025 53.7289 24.7899 53.9564 24.7793 54.221C24.8006 54.9566 25.7677 54.8137 26.2885 54.9143C28.1166 55.0466 29.8277 54.1469 31.3263 53.205C33.7654 51.3528 34.8495 48.2994 34.8601 45.3147C35.1524 40.3138 34.5253 35.3024 34.4828 30.3015C34.3765 28.7139 34.0417 27.1581 33.7601 25.5969C33.6963 25.3694 33.7016 24.9831 33.6379 24.6444C33.7229 24.2475 33.6485 23.8188 33.335 23.369L33.3509 23.3743ZM32.2775 24.8084C30.3485 26.7982 27.3992 26.6977 24.8431 27.1634C23.3339 27.3274 21.7981 27.3274 20.2836 27.1845C20.0392 27.1422 19.7681 27.084 19.5556 27.2533C18.4024 27.3168 17.2493 27.3644 16.0908 27.3697C14.0077 27.2957 12.0521 27.0522 10.0115 26.4966C8.96462 26.1579 7.80615 25.9197 6.9559 25.1789C9.95304 23.7501 13.37 23.586 16.6435 23.1521H16.6222C16.6222 23.1521 16.5956 23.1574 16.5797 23.1574C20.1136 22.7499 23.6421 22.7975 27.1972 23.0674C28.3238 23.1732 29.461 23.2632 30.5823 23.4114C31.1775 23.5331 32.0277 23.6072 32.3838 24.184C32.49 24.3957 32.4528 24.6391 32.2668 24.8031L32.2775 24.8084Z" fill="#7688AD"/>
<path d="M17.393 35.0008C18.1741 34.5457 18.9925 34.0747 19.9384 34.1541C19.7471 33.8789 19.4495 33.5985 19.1413 33.4397C16.7393 32.5295 14.6456 35.1067 14.0185 37.1758C13.9654 37.3557 13.9282 37.5357 13.8963 37.7209C13.6519 37.5251 13.3755 37.3504 13.0673 37.2128C12.6688 37.0806 12.1799 36.9218 11.7919 37.1546C11.4731 37.3293 11.4837 37.8003 11.7601 38.0066C12.0258 38.176 12.3499 38.1813 12.605 38.3718C14.2736 39.5148 14.0982 41.9968 13.6572 43.7378C13.4659 44.3623 13.2002 44.9655 13.0142 45.59C12.8441 45.9975 12.892 46.532 13.3649 46.7013C14.263 46.9288 14.6031 45.7223 14.9166 45.0925C15.3258 44.0871 15.5702 42.8435 15.5384 41.6263C16.2239 42.1979 17.0635 42.6053 17.9403 42.7535C18.2113 42.817 18.5089 42.6741 18.6365 42.4254C18.9659 41.7269 18.0466 41.3511 17.6374 40.949C15.0123 39.3032 15.2195 36.9747 17.3877 35.0114L17.393 35.0008Z" fill="#7688AD"/>
<path d="M27.0167 45.0663C27.9626 45.5743 28.5631 46.4581 29.3283 47.1672C29.5568 47.363 29.8809 47.4053 30.136 47.2413C30.8747 46.6645 30.1732 45.5426 29.679 45.0134C28.4621 43.8491 25.8688 42.4732 24.0833 43.0659C24.2533 42.4944 24.4818 41.9388 24.7688 41.4254C25.2896 40.5999 26.0548 39.9437 26.9051 39.4727C27.2983 39.3034 28.0901 39.0017 27.7925 38.4567C27.4843 38.0121 26.8785 38.1021 26.4268 38.2556C24.806 38.8112 23.4881 40.0972 22.8079 41.653C21.8142 43.9074 21.32 47.2942 23.6263 48.9082C23.8654 49.0882 24.2161 49.0617 24.4393 48.8765C25.0823 48.2626 24.2321 47.4318 24.062 46.7703C23.7379 45.823 23.7113 44.807 23.892 43.8227C24.9442 44.209 26.0548 44.4524 27.006 45.0663H27.0167Z" fill="#7688AD"/>
<path d="M29.0043 31.2013C29.3391 30.8891 29.9768 30.6245 29.727 30.0582C29.1744 29.1427 27.899 30.2646 27.4367 30.7938C26.2198 32.1644 26.1294 34.26 27.2347 35.7259C27.6599 36.435 28.8077 35.9058 28.5526 35.1332C27.9628 33.8473 27.8565 32.2173 29.0096 31.2013H29.0043Z" fill="#7688AD"/>
<path d="M16.4366 47.5957C14.6457 47.437 12.908 48.2202 11.4626 49.2151C10.91 49.6807 9.90559 50.1253 9.97999 50.9667C10.0225 51.2948 10.352 51.5012 10.6655 51.4535C11.0162 51.4218 11.2182 51.099 11.5051 50.9296C12.1534 50.4904 12.9665 50.0247 13.7583 49.7178C14.9805 49.2203 16.3303 49.3262 17.5951 49.0034C17.898 48.9346 18.1265 48.6859 18.1158 48.3683C18.0361 47.5957 17.0105 47.7121 16.4366 47.5957Z" fill="#7688AD"/>
</g>
<defs>
<clipPath id="clip0_441_120">
<rect width="39" height="60" fill="white"/>
</clipPath>
</defs>
</svg>
